# xmcd
#
# Track frame offsets:
#	150
#	18275
#	33637
#	49527
#
# Disc length: 903 seconds
#
# Revision: 1
# Processed by: cddbd v1.4PL0 Copyright (c) Steve Scherf et al.
# Submitted via: dBpowerAMP V4.0
#
DISCID=27038504
DTITLE=Venus - CD promo
DYEAR=2003
DGENRE=Rock
TTITLE0=Beautiful Days (Radio Edit)
TTITLE1=A Night With A Angel
TTITLE2=Speeder 5
TTITLE3=Beautiful Days
EXTD=
EXTT0=
EXTT1=
EXTT2=
EXTT3=
PLAYORDER=
